# xmcd CD database file
#
# Track frame offsets:
#	150
#	54335
#	104270
#	156942
#	191772
#	229392
#
# Disc length: 3721 seconds
#
# Revision: 1
# Processed by: cddbd v1.4PL0 Copyright (c) Steve Scherf et al.
# Submitted via: CDex 1.51
#
DISCID=4b0e8706
DTITLE=Joe Haider Straight Ahead - Up Shot
DYEAR=89
DGENRE=Jazz
TTITLE0=Blues East
TTITLE1=Sweet Henry
TTITLE2=Up Shot
TTITLE3=For The Time Being
TTITLE4=You and the night nd the music
TTITLE5=Blues West
EXTD=YEAR: 89
EXTT0=
EXTT1=
EXTT2=
EXTT3=
EXTT4=
EXTT5=
PLAYORDER=
